<?xml version="1.0" standalone="no"?>
<!DOCTYPE svg PUBLIC "-//W3C//DTD SVG 20010904//EN"
 "http://www.w3.org/TR/2001/REC-SVG-20010904/DTD/svg10.dtd">
<svg version="1.0" xmlns="http://www.w3.org/2000/svg"
 width="632.000000pt" height="632.000000pt" viewBox="0 0 632.000000 632.000000"
 preserveAspectRatio="xMidYMid meet">
<metadata>
Created by potrace 1.11, written by Peter Selinger 2001-2013
</metadata>
<g transform="translate(0.000000,632.000000) scale(0.100000,-0.100000)"
fill="#000000" stroke="none">
<path d="M3100 6300 c-84 -15 -127 -49 -370 -290 l-238 -237 -89 24 c-48 13
-96 26 -106 28 -10 2 -27 7 -37 10 -10 3 -27 8 -37 10 -10 2 -61 16 -113 30
-104 28 -196 53 -221 59 -9 3 -34 9 -55 15 -104 29 -225 -1 -305 -76 -72 -67
-68 -55 -204 -563 -32 -118 -61 -218 -65 -223 -3 -4 -15 -9 -26 -11 -10 -2
-129 -34 -262 -71 -134 -37 -251 -68 -260 -70 -168 -37 -260 -105 -306 -225
-29 -73 -24 -134 24 -310 90 -329 140 -522 140 -535 0 -9 -107 -122 -237 -253
-301 -300 -309 -311 -320 -428 -7 -77 8 -143 48 -200 16 -24 136 -150 266
-279 l236 -236 -37 -142 c-21 -78 -39 -149 -41 -157 -2 -8 -23 -82 -45 -165
-65 -235 -64 -306 6 -413 64 -97 96 -110 574 -237 74 -20 140 -37 145 -39 6
-2 27 -6 47 -10 21 -5 41 -13 46 -20 6 -6 37 -114 71 -241 84 -316 112 -414
128 -453 18 -43 90 -115 140 -140 75 -39 137 -43 258 -17 29 6 504 133 547
146 l37 12 268 -268 c218 -218 278 -273 323 -293 96 -45 221 -35 310 25 19 12
148 136 285 274 138 138 257 251 265 251 8 0 69 -14 135 -32 111 -29 201 -53
412 -109 107 -29 143 -31 208 -17 97 23 171 80 215 165 10 20 58 185 106 366
48 182 89 332 90 333 2 3 165 49 234 67 266 67 437 117 483 142 50 28 102 83
130 139 16 31 36 128 31 155 -10 66 -15 92 -18 98 -3 3 -25 85 -50 181 -25 96
-59 224 -76 285 -16 60 -28 110 -27 112 1 1 115 116 253 255 230 232 253 258
273 312 23 61 28 129 16 188 -17 79 -55 125 -308 378 l-254 255 32 120 c59
219 126 469 142 530 50 203 -52 370 -257 420 -8 2 -76 20 -150 40 -242 65
-405 107 -427 112 -24 6 -27 14 -77 203 -132 503 -138 518 -203 585 -56 58
-122 87 -204 91 -68 3 -100 -4 -416 -92 -51 -14 -101 -27 -110 -29 -10 -2 -45
-11 -78 -20 -33 -10 -85 -23 -115 -30 l-55 -14 -235 235 c-129 129 -249 243
-265 253 -64 38 -151 54 -225 41z"/>
</g>
</svg>
